# xmcd CD database file
#
# Track frame offsets:
#	150
#	15083
#	25754
#	81720
#	103851
#	133630
#	222019
#
# Disc length: 3182 seconds
#
# Revision: 0
# Processed by: cddbd v1.4PL0 Copyright (c) Steve Scherf et al.
# Submitted via: CDex 1.50beta10
#
DISCID=530c6c07
DTITLE=Lama Karta - Ngöndro
DYEAR=2002
DGENRE=New Age
TTITLE0=Prière de Refuge
TTITLE1=Les Quatre Pensées
TTITLE2=Prise de Refuge and Prosternations
TTITLE3=Dorjdjé Sempa
TTITLE4=Mandala
TTITLE5=Gourou Yoga
TTITLE6=Dédicace du Mérite
EXTD=YEAR: 2002
EXTT0=
EXTT1=
EXTT2=
EXTT3=
EXTT4=
EXTT5=
EXTT6=
PLAYORDER=
